<svg id="visual" viewBox="0 0 1400 300" width="1400" height="300" xmlns="http://www.w3.org/2000/svg" xmlns:xlink="http://www.w3.org/1999/xlink" version="1.1"><rect x="0" y="0" width="1400" height="300" fill="#29E5FF"></rect><path d="M0 162L11.7 162.2C23.3 162.3 46.7 162.7 70 160.2C93.3 157.7 116.7 152.3 140 141.3C163.3 130.3 186.7 113.7 210 111.5C233.3 109.3 256.7 121.7 280 129.7C303.3 137.7 326.7 141.3 350 137.3C373.3 133.3 396.7 121.7 420 123.7C443.3 125.7 466.7 141.3 490 141.8C513.3 142.3 536.7 127.7 560 121.2C583.3 114.7 606.7 116.3 630 113.8C653.3 111.3 676.7 104.7 700 110.2C723.3 115.7 746.7 133.3 770 143C793.3 152.7 816.7 154.3 840 147.8C863.3 141.3 886.7 126.7 910 118.3C933.3 110 956.7 108 980 104.8C1003.3 101.7 1026.7 97.3 1050 100.5C1073.3 103.7 1096.7 114.3 1120 122C1143.3 129.7 1166.7 134.3 1190 134.2C1213.3 134 1236.7 129 1260 132.8C1283.3 136.7 1306.7 149.3 1330 152.8C1353.3 156.3 1376.7 150.7 1388.3 147.8L1400 145L1400 301L1388.3 301C1376.7 301 1353.3 301 1330 301C1306.7 301 1283.3 301 1260 301C1236.7 301 1213.3 301 1190 301C1166.7 301 1143.3 301 1120 301C1096.7 301 1073.3 301 1050 301C1026.7 301 1003.3 301 980 301C956.7 301 933.3 301 910 301C886.7 301 863.3 301 840 301C816.7 301 793.3 301 770 301C746.7 301 723.3 301 700 301C676.7 301 653.3 301 630 301C606.7 301 583.3 301 560 301C536.7 301 513.3 301 490 301C466.7 301 443.3 301 420 301C396.7 301 373.3 301 350 301C326.7 301 303.3 301 280 301C256.7 301 233.3 301 210 301C186.7 301 163.3 301 140 301C116.7 301 93.3 301 70 301C46.7 301 23.3 301 11.7 301L0 301Z" fill="#16c7de"></path><path d="M0 160L11.7 163.3C23.3 166.7 46.7 173.3 70 173C93.3 172.7 116.7 165.3 140 155.3C163.3 145.3 186.7 132.7 210 133.8C233.3 135 256.7 150 280 154.7C303.3 159.3 326.7 153.7 350 149.3C373.3 145 396.7 142 420 138.7C443.3 135.3 466.7 131.7 490 129.7C513.3 127.7 536.7 127.3 560 126.8C583.3 126.3 606.7 125.7 630 126.7C653.3 127.7 676.7 130.3 700 137.7C723.3 145 746.7 157 770 159.5C793.3 162 816.7 155 840 156.3C863.3 157.7 886.7 167.3 910 172.7C933.3 178 956.7 179 980 177.3C1003.3 175.7 1026.7 171.3 1050 166.2C1073.3 161 1096.7 155 1120 157.8C1143.3 160.7 1166.7 172.3 1190 173.3C1213.3 174.3 1236.7 164.7 1260 160.7C1283.3 156.7 1306.7 158.3 1330 162.8C1353.3 167.3 1376.7 174.7 1388.3 178.3L1400 182L1400 301L1388.3 301C1376.7 301 1353.3 301 1330 301C1306.7 301 1283.3 301 1260 301C1236.7 301 1213.3 301 1190 301C1166.7 301 1143.3 301 1120 301C1096.7 301 1073.3 301 1050 301C1026.7 301 1003.3 301 980 301C956.7 301 933.3 301 910 301C886.7 301 863.3 301 840 301C816.7 301 793.3 301 770 301C746.7 301 723.3 301 700 301C676.7 301 653.3 301 630 301C606.7 301 583.3 301 560 301C536.7 301 513.3 301 490 301C466.7 301 443.3 301 420 301C396.7 301 373.3 301 350 301C326.7 301 303.3 301 280 301C256.7 301 233.3 301 210 301C186.7 301 163.3 301 140 301C116.7 301 93.3 301 70 301C46.7 301 23.3 301 11.7 301L0 301Z" fill="#00abd5"></path><path d="M0 163L11.7 164.5C23.3 166 46.7 169 70 167.3C93.3 165.7 116.7 159.3 140 159.5C163.3 159.7 186.7 166.3 210 169.7C233.3 173 256.7 173 280 170.8C303.3 168.7 326.7 164.3 350 161.2C373.3 158 396.7 156 420 157.5C443.3 159 466.7 164 490 163.8C513.3 163.7 536.7 158.3 560 155.3C583.3 152.3 606.7 151.7 630 158.2C653.3 164.7 676.7 178.3 700 182.8C723.3 187.3 746.7 182.7 770 176.5C793.3 170.3 816.7 162.7 840 162.3C863.3 162 886.7 169 910 177.3C933.3 185.7 956.7 195.3 980 197.5C1003.3 199.7 1026.7 194.3 1050 187C1073.3 179.7 1096.7 170.3 1120 166.2C1143.3 162 1166.7 163 1190 162.5C1213.3 162 1236.7 160 1260 159.3C1283.3 158.7 1306.7 159.3 1330 161C1353.3 162.7 1376.7 165.3 1388.3 166.7L1400 168L1400 301L1388.3 301C1376.7 301 1353.3 301 1330 301C1306.7 301 1283.3 301 1260 301C1236.7 301 1213.3 301 1190 301C1166.7 301 1143.3 301 1120 301C1096.7 301 1073.3 301 1050 301C1026.7 301 1003.3 301 980 301C956.7 301 933.3 301 910 301C886.7 301 863.3 301 840 301C816.7 301 793.3 301 770 301C746.7 301 723.3 301 700 301C676.7 301 653.3 301 630 301C606.7 301 583.3 301 560 301C536.7 301 513.3 301 490 301C466.7 301 443.3 301 420 301C396.7 301 373.3 301 350 301C326.7 301 303.3 301 280 301C256.7 301 233.3 301 210 301C186.7 301 163.3 301 140 301C116.7 301 93.3 301 70 301C46.7 301 23.3 301 11.7 301L0 301Z" fill="#008fc6"></path><path d="M0 215L11.7 210.3C23.3 205.7 46.7 196.3 70 191.3C93.3 186.3 116.7 185.7 140 188.3C163.3 191 186.7 197 210 201.3C233.3 205.7 256.7 208.3 280 210.3C303.3 212.3 326.7 213.7 350 209.8C373.3 206 396.7 197 420 193C443.3 189 466.7 190 490 192.2C513.3 194.3 536.7 197.7 560 200.2C583.3 202.7 606.7 204.3 630 205.5C653.3 206.7 676.7 207.3 700 208.3C723.3 209.3 746.7 210.7 770 208.8C793.3 207 816.7 202 840 203C863.3 204 886.7 211 910 214.3C933.3 217.7 956.7 217.3 980 218.8C1003.3 220.3 1026.7 223.7 1050 218.7C1073.3 213.7 1096.7 200.3 1120 198C1143.3 195.7 1166.7 204.3 1190 205.8C1213.3 207.3 1236.7 201.7 1260 203.2C1283.3 204.7 1306.7 213.3 1330 211C1353.3 208.7 1376.7 195.3 1388.3 188.7L1400 182L1400 301L1388.3 301C1376.7 301 1353.3 301 1330 301C1306.7 301 1283.3 301 1260 301C1236.7 301 1213.3 301 1190 301C1166.7 301 1143.3 301 1120 301C1096.7 301 1073.3 301 1050 301C1026.7 301 1003.3 301 980 301C956.7 301 933.3 301 910 301C886.7 301 863.3 301 840 301C816.7 301 793.3 301 770 301C746.7 301 723.3 301 700 301C676.7 301 653.3 301 630 301C606.7 301 583.3 301 560 301C536.7 301 513.3 301 490 301C466.7 301 443.3 301 420 301C396.7 301 373.3 301 350 301C326.7 301 303.3 301 280 301C256.7 301 233.3 301 210 301C186.7 301 163.3 301 140 301C116.7 301 93.3 301 70 301C46.7 301 23.3 301 11.7 301L0 301Z" fill="#0073b3"></path><path d="M0 248L11.7 242.5C23.3 237 46.7 226 70 221.5C93.3 217 116.7 219 140 219.3C163.3 219.7 186.7 218.3 210 217.7C233.3 217 256.7 217 280 221C303.3 225 326.7 233 350 235.3C373.3 237.7 396.7 234.3 420 230.5C443.3 226.7 466.7 222.3 490 223.7C513.3 225 536.7 232 560 231.2C583.3 230.3 606.7 221.7 630 220.7C653.3 219.7 676.7 226.3 700 230.7C723.3 235 746.7 237 770 237.8C793.3 238.7 816.7 238.3 840 236C863.3 233.7 886.7 229.3 910 226.3C933.3 223.3 956.7 221.7 980 221.7C1003.3 221.7 1026.7 223.3 1050 225.2C1073.3 227 1096.7 229 1120 227C1143.3 225 1166.7 219 1190 221.5C1213.3 224 1236.7 235 1260 235C1283.3 235 1306.7 224 1330 222.3C1353.3 220.7 1376.7 228.3 1388.3 232.2L1400 236L1400 301L1388.3 301C1376.7 301 1353.3 301 1330 301C1306.7 301 1283.3 301 1260 301C1236.7 301 1213.3 301 1190 301C1166.7 301 1143.3 301 1120 301C1096.7 301 1073.3 301 1050 301C1026.7 301 1003.3 301 980 301C956.7 301 933.3 301 910 301C886.7 301 863.3 301 840 301C816.7 301 793.3 301 770 301C746.7 301 723.3 301 700 301C676.7 301 653.3 301 630 301C606.7 301 583.3 301 560 301C536.7 301 513.3 301 490 301C466.7 301 443.3 301 420 301C396.7 301 373.3 301 350 301C326.7 301 303.3 301 280 301C256.7 301 233.3 301 210 301C186.7 301 163.3 301 140 301C116.7 301 93.3 301 70 301C46.7 301 23.3 301 11.7 301L0 301Z" fill="#00569c"></path><path d="M0 266L11.7 263.2C23.3 260.3 46.7 254.7 70 251.8C93.3 249 116.7 249 140 249.2C163.3 249.3 186.7 249.7 210 250.3C233.3 251 256.7 252 280 251.5C303.3 251 326.7 249 350 248.7C373.3 248.3 396.7 249.7 420 251.3C443.3 253 466.7 255 490 256.5C513.3 258 536.7 259 560 258C583.3 257 606.7 254 630 254.8C653.3 255.7 676.7 260.3 700 262.3C723.3 264.3 746.7 263.7 770 263.3C793.3 263 816.7 263 840 263.5C863.3 264 886.7 265 910 262.3C933.3 259.7 956.7 253.3 980 250.7C1003.3 248 1026.7 249 1050 250.3C1073.3 251.7 1096.7 253.3 1120 252.3C1143.3 251.3 1166.7 247.7 1190 249.5C1213.3 251.3 1236.7 258.7 1260 260.8C1283.3 263 1306.7 260 1330 257.5C1353.3 255 1376.7 253 1388.3 252L1400 251L1400 301L1388.3 301C1376.7 301 1353.3 301 1330 301C1306.7 301 1283.3 301 1260 301C1236.7 301 1213.3 301 1190 301C1166.7 301 1143.3 301 1120 301C1096.7 301 1073.3 301 1050 301C1026.7 301 1003.3 301 980 301C956.7 301 933.3 301 910 301C886.7 301 863.3 301 840 301C816.7 301 793.3 301 770 301C746.7 301 723.3 301 700 301C676.7 301 653.3 301 630 301C606.7 301 583.3 301 560 301C536.7 301 513.3 301 490 301C466.7 301 443.3 301 420 301C396.7 301 373.3 301 350 301C326.7 301 303.3 301 280 301C256.7 301 233.3 301 210 301C186.7 301 163.3 301 140 301C116.7 301 93.3 301 70 301C46.7 301 23.3 301 11.7 301L0 301Z" fill="#153a83"></path></svg>