<svg id="visual" viewBox="0 0 1400 300" width="1400" height="300" xmlns="http://www.w3.org/2000/svg" xmlns:xlink="http://www.w3.org/1999/xlink" version="1.1"><path d="M0 49L23.3 47C46.7 45 93.3 41 140 42.5C186.7 44 233.3 51 280 54C326.7 57 373.3 56 420 50.5C466.7 45 513.3 35 560 29C606.7 23 653.3 21 700 23.5C746.7 26 793.3 33 840 37C886.7 41 933.3 42 980 40.5C1026.7 39 1073.3 35 1120 32.5C1166.7 30 1213.3 29 1260 26C1306.7 23 1353.3 18 1376.7 15.5L1400 13L1400 0L1376.7 0C1353.3 0 1306.7 0 1260 0C1213.3 0 1166.7 0 1120 0C1073.3 0 1026.7 0 980 0C933.3 0 886.7 0 840 0C793.3 0 746.7 0 700 0C653.3 0 606.7 0 560 0C513.3 0 466.7 0 420 0C373.3 0 326.7 0 280 0C233.3 0 186.7 0 140 0C93.3 0 46.7 0 23.3 0L0 0Z" fill="#33313b"></path><path d="M0 82L23.3 81.5C46.7 81 93.3 80 140 79.5C186.7 79 233.3 79 280 83C326.7 87 373.3 95 420 88C466.7 81 513.3 59 560 46.5C606.7 34 653.3 31 700 34.5C746.7 38 793.3 48 840 54C886.7 60 933.3 62 980 62C1026.7 62 1073.3 60 1120 61C1166.7 62 1213.3 66 1260 62.5C1306.7 59 1353.3 48 1376.7 42.5L1400 37L1400 11L1376.7 13.5C1353.3 16 1306.7 21 1260 24C1213.3 27 1166.7 28 1120 30.5C1073.3 33 1026.7 37 980 38.5C933.3 40 886.7 39 840 35C793.3 31 746.7 24 700 21.5C653.3 19 606.7 21 560 27C513.3 33 466.7 43 420 48.5C373.3 54 326.7 55 280 52C233.3 49 186.7 42 140 40.5C93.3 39 46.7 43 23.3 45L0 47Z" fill="#57555e"></path><path d="M0 130L23.3 137.5C46.7 145 93.3 160 140 159C186.7 158 233.3 141 280 132C326.7 123 373.3 122 420 129C466.7 136 513.3 151 560 139.5C606.7 128 653.3 90 700 82C746.7 74 793.3 96 840 102C886.7 108 933.3 98 980 100C1026.7 102 1073.3 116 1120 125.5C1166.7 135 1213.3 140 1260 135.5C1306.7 131 1353.3 117 1376.7 110L1400 103L1400 35L1376.7 40.5C1353.3 46 1306.7 57 1260 60.5C1213.3 64 1166.7 60 1120 59C1073.3 58 1026.7 60 980 60C933.3 60 886.7 58 840 52C793.3 46 746.7 36 700 32.5C653.3 29 606.7 32 560 44.5C513.3 57 466.7 79 420 86C373.3 93 326.7 85 280 81C233.3 77 186.7 77 140 77.5C93.3 78 46.7 79 23.3 79.5L0 80Z" fill="#7e7c84"></path><path d="M0 166L23.3 170C46.7 174 93.3 182 140 183C186.7 184 233.3 178 280 173C326.7 168 373.3 164 420 166.5C466.7 169 513.3 178 560 175C606.7 172 653.3 157 700 152C746.7 147 793.3 152 840 152C886.7 152 933.3 147 980 149.5C1026.7 152 1073.3 162 1120 172.5C1166.7 183 1213.3 194 1260 192C1306.7 190 1353.3 175 1376.7 167.5L1400 160L1400 101L1376.7 108C1353.3 115 1306.7 129 1260 133.5C1213.3 138 1166.7 133 1120 123.5C1073.3 114 1026.7 100 980 98C933.3 96 886.7 106 840 100C793.3 94 746.7 72 700 80C653.3 88 606.7 126 560 137.5C513.3 149 466.7 134 420 127C373.3 120 326.7 121 280 130C233.3 139 186.7 156 140 157C93.3 158 46.7 143 23.3 135.5L0 128Z" fill="#a7a6ab"></path><path d="M0 253L23.3 253C46.7 253 93.3 253 140 256C186.7 259 233.3 265 280 269C326.7 273 373.3 275 420 270.5C466.7 266 513.3 255 560 254.5C606.7 254 653.3 264 700 265C746.7 266 793.3 258 840 259C886.7 260 933.3 270 980 269.5C1026.7 269 1073.3 258 1120 259.5C1166.7 261 1213.3 275 1260 277.5C1306.7 280 1353.3 271 1376.7 266.5L1400 262L1400 158L1376.7 165.5C1353.3 173 1306.7 188 1260 190C1213.3 192 1166.7 181 1120 170.5C1073.3 160 1026.7 150 980 147.5C933.3 145 886.7 150 840 150C793.3 150 746.7 145 700 150C653.3 155 606.7 170 560 173C513.3 176 466.7 167 420 164.5C373.3 162 326.7 166 280 171C233.3 176 186.7 182 140 181C93.3 180 46.7 172 23.3 168L0 164Z" fill="#d2d2d4"></path><path d="M0 301L23.3 301C46.7 301 93.3 301 140 301C186.7 301 233.3 301 280 301C326.7 301 373.3 301 420 301C466.7 301 513.3 301 560 301C606.7 301 653.3 301 700 301C746.7 301 793.3 301 840 301C886.7 301 933.3 301 980 301C1026.7 301 1073.3 301 1120 301C1166.7 301 1213.3 301 1260 301C1306.7 301 1353.3 301 1376.7 301L1400 301L1400 260L1376.7 264.5C1353.3 269 1306.7 278 1260 275.5C1213.3 273 1166.7 259 1120 257.5C1073.3 256 1026.7 267 980 267.5C933.3 268 886.7 258 840 257C793.3 256 746.7 264 700 263C653.3 262 606.7 252 560 252.5C513.3 253 466.7 264 420 268.5C373.3 273 326.7 271 280 267C233.3 263 186.7 257 140 254C93.3 251 46.7 251 23.3 251L0 251Z" fill="#ffffff"></path></svg>