<svg id="visual" viewBox="0 0 1400 300" width="1400" height="300" xmlns="http://www.w3.org/2000/svg" xmlns:xlink="http://www.w3.org/1999/xlink" version="1.1"><rect x="0" y="0" width="1400" height="300" fill="#33313B"></rect><path d="M0 136L11.7 135.8C23.3 135.7 46.7 135.3 70 137.8C93.3 140.3 116.7 145.7 140 156.7C163.3 167.7 186.7 184.3 210 186.5C233.3 188.7 256.7 176.3 280 168.3C303.3 160.3 326.7 156.7 350 160.7C373.3 164.7 396.7 176.3 420 174.3C443.3 172.3 466.7 156.7 490 156.2C513.3 155.7 536.7 170.3 560 176.8C583.3 183.3 606.7 181.7 630 184.2C653.3 186.7 676.7 193.3 700 187.8C723.3 182.3 746.7 164.7 770 155C793.3 145.3 816.7 143.7 840 150.2C863.3 156.7 886.7 171.3 910 179.7C933.3 188 956.7 190 980 193.2C1003.3 196.3 1026.7 200.7 1050 197.5C1073.3 194.3 1096.7 183.7 1120 176C1143.3 168.3 1166.7 163.7 1190 163.8C1213.3 164 1236.7 169 1260 165.2C1283.3 161.3 1306.7 148.7 1330 145.2C1353.3 141.7 1376.7 147.3 1388.3 150.2L1400 153L1400 0L1388.3 0C1376.7 0 1353.3 0 1330 0C1306.7 0 1283.3 0 1260 0C1236.7 0 1213.3 0 1190 0C1166.7 0 1143.3 0 1120 0C1096.7 0 1073.3 0 1050 0C1026.7 0 1003.3 0 980 0C956.7 0 933.3 0 910 0C886.7 0 863.3 0 840 0C816.7 0 793.3 0 770 0C746.7 0 723.3 0 700 0C676.7 0 653.3 0 630 0C606.7 0 583.3 0 560 0C536.7 0 513.3 0 490 0C466.7 0 443.3 0 420 0C396.7 0 373.3 0 350 0C326.7 0 303.3 0 280 0C256.7 0 233.3 0 210 0C186.7 0 163.3 0 140 0C116.7 0 93.3 0 70 0C46.7 0 23.3 0 11.7 0L0 0Z" fill="#211f27"></path><path d="M0 138L11.7 134.7C23.3 131.3 46.7 124.7 70 125C93.3 125.3 116.7 132.7 140 142.7C163.3 152.7 186.7 165.3 210 164.2C233.3 163 256.7 148 280 143.3C303.3 138.7 326.7 144.3 350 148.7C373.3 153 396.7 156 420 159.3C443.3 162.7 466.7 166.3 490 168.3C513.3 170.3 536.7 170.7 560 171.2C583.3 171.7 606.7 172.3 630 171.3C653.3 170.3 676.7 167.7 700 160.3C723.3 153 746.7 141 770 138.5C793.3 136 816.7 143 840 141.7C863.3 140.3 886.7 130.7 910 125.3C933.3 120 956.7 119 980 120.7C1003.3 122.3 1026.7 126.7 1050 131.8C1073.3 137 1096.7 143 1120 140.2C1143.3 137.3 1166.7 125.7 1190 124.7C1213.3 123.7 1236.7 133.3 1260 137.3C1283.3 141.3 1306.7 139.7 1330 135.2C1353.3 130.7 1376.7 123.3 1388.3 119.7L1400 116L1400 0L1388.3 0C1376.7 0 1353.3 0 1330 0C1306.7 0 1283.3 0 1260 0C1236.7 0 1213.3 0 1190 0C1166.7 0 1143.3 0 1120 0C1096.7 0 1073.3 0 1050 0C1026.7 0 1003.3 0 980 0C956.7 0 933.3 0 910 0C886.7 0 863.3 0 840 0C816.7 0 793.3 0 770 0C746.7 0 723.3 0 700 0C676.7 0 653.3 0 630 0C606.7 0 583.3 0 560 0C536.7 0 513.3 0 490 0C466.7 0 443.3 0 420 0C396.7 0 373.3 0 350 0C326.7 0 303.3 0 280 0C256.7 0 233.3 0 210 0C186.7 0 163.3 0 140 0C116.7 0 93.3 0 70 0C46.7 0 23.3 0 11.7 0L0 0Z" fill="#262337"></path><path d="M0 135L11.7 133.5C23.3 132 46.7 129 70 130.7C93.3 132.3 116.7 138.7 140 138.5C163.3 138.3 186.7 131.7 210 128.3C233.3 125 256.7 125 280 127.2C303.3 129.3 326.7 133.7 350 136.8C373.3 140 396.7 142 420 140.5C443.3 139 466.7 134 490 134.2C513.3 134.3 536.7 139.7 560 142.7C583.3 145.7 606.7 146.3 630 139.8C653.3 133.3 676.7 119.7 700 115.2C723.3 110.7 746.7 115.3 770 121.5C793.3 127.7 816.7 135.3 840 135.7C863.3 136 886.7 129 910 120.7C933.3 112.3 956.7 102.7 980 100.5C1003.3 98.3 1026.7 103.7 1050 111C1073.3 118.3 1096.7 127.7 1120 131.8C1143.3 136 1166.7 135 1190 135.5C1213.3 136 1236.7 138 1260 138.7C1283.3 139.3 1306.7 138.7 1330 137C1353.3 135.3 1376.7 132.7 1388.3 131.3L1400 130L1400 0L1388.3 0C1376.7 0 1353.3 0 1330 0C1306.7 0 1283.3 0 1260 0C1236.7 0 1213.3 0 1190 0C1166.7 0 1143.3 0 1120 0C1096.7 0 1073.3 0 1050 0C1026.7 0 1003.3 0 980 0C956.7 0 933.3 0 910 0C886.7 0 863.3 0 840 0C816.7 0 793.3 0 770 0C746.7 0 723.3 0 700 0C676.7 0 653.3 0 630 0C606.7 0 583.3 0 560 0C536.7 0 513.3 0 490 0C466.7 0 443.3 0 420 0C396.7 0 373.3 0 350 0C326.7 0 303.3 0 280 0C256.7 0 233.3 0 210 0C186.7 0 163.3 0 140 0C116.7 0 93.3 0 70 0C46.7 0 23.3 0 11.7 0L0 0Z" fill="#2a2849"></path><path d="M0 83L11.7 87.7C23.3 92.3 46.7 101.7 70 106.7C93.3 111.7 116.7 112.3 140 109.7C163.3 107 186.7 101 210 96.7C233.3 92.3 256.7 89.7 280 87.7C303.3 85.7 326.7 84.3 350 88.2C373.3 92 396.7 101 420 105C443.3 109 466.7 108 490 105.8C513.3 103.7 536.7 100.3 560 97.8C583.3 95.3 606.7 93.7 630 92.5C653.3 91.3 676.7 90.7 700 89.7C723.3 88.7 746.7 87.3 770 89.2C793.3 91 816.7 96 840 95C863.3 94 886.7 87 910 83.7C933.3 80.3 956.7 80.7 980 79.2C1003.3 77.7 1026.7 74.3 1050 79.3C1073.3 84.3 1096.7 97.7 1120 100C1143.3 102.3 1166.7 93.7 1190 92.2C1213.3 90.7 1236.7 96.3 1260 94.8C1283.3 93.3 1306.7 84.7 1330 87C1353.3 89.3 1376.7 102.7 1388.3 109.3L1400 116L1400 0L1388.3 0C1376.7 0 1353.3 0 1330 0C1306.7 0 1283.3 0 1260 0C1236.7 0 1213.3 0 1190 0C1166.7 0 1143.3 0 1120 0C1096.7 0 1073.3 0 1050 0C1026.7 0 1003.3 0 980 0C956.7 0 933.3 0 910 0C886.7 0 863.3 0 840 0C816.7 0 793.3 0 770 0C746.7 0 723.3 0 700 0C676.7 0 653.3 0 630 0C606.7 0 583.3 0 560 0C536.7 0 513.3 0 490 0C466.7 0 443.3 0 420 0C396.7 0 373.3 0 350 0C326.7 0 303.3 0 280 0C256.7 0 233.3 0 210 0C186.7 0 163.3 0 140 0C116.7 0 93.3 0 70 0C46.7 0 23.3 0 11.7 0L0 0Z" fill="#292e5b"></path><path d="M0 50L11.7 55.5C23.3 61 46.7 72 70 76.5C93.3 81 116.7 79 140 78.7C163.3 78.3 186.7 79.7 210 80.3C233.3 81 256.7 81 280 77C303.3 73 326.7 65 350 62.7C373.3 60.3 396.7 63.7 420 67.5C443.3 71.3 466.7 75.7 490 74.3C513.3 73 536.7 66 560 66.8C583.3 67.7 606.7 76.3 630 77.3C653.3 78.3 676.7 71.7 700 67.3C723.3 63 746.7 61 770 60.2C793.3 59.3 816.7 59.7 840 62C863.3 64.3 886.7 68.7 910 71.7C933.3 74.7 956.7 76.3 980 76.3C1003.3 76.3 1026.7 74.7 1050 72.8C1073.3 71 1096.7 69 1120 71C1143.3 73 1166.7 79 1190 76.5C1213.3 74 1236.7 63 1260 63C1283.3 63 1306.7 74 1330 75.7C1353.3 77.3 1376.7 69.7 1388.3 65.8L1400 62L1400 0L1388.3 0C1376.7 0 1353.3 0 1330 0C1306.7 0 1283.3 0 1260 0C1236.7 0 1213.3 0 1190 0C1166.7 0 1143.3 0 1120 0C1096.7 0 1073.3 0 1050 0C1026.7 0 1003.3 0 980 0C956.7 0 933.3 0 910 0C886.7 0 863.3 0 840 0C816.7 0 793.3 0 770 0C746.7 0 723.3 0 700 0C676.7 0 653.3 0 630 0C606.7 0 583.3 0 560 0C536.7 0 513.3 0 490 0C466.7 0 443.3 0 420 0C396.7 0 373.3 0 350 0C326.7 0 303.3 0 280 0C256.7 0 233.3 0 210 0C186.7 0 163.3 0 140 0C116.7 0 93.3 0 70 0C46.7 0 23.3 0 11.7 0L0 0Z" fill="#24346f"></path><path d="M0 32L11.7 34.8C23.3 37.7 46.7 43.3 70 46.2C93.3 49 116.7 49 140 48.8C163.3 48.7 186.7 48.3 210 47.7C233.3 47 256.7 46 280 46.5C303.3 47 326.7 49 350 49.3C373.3 49.7 396.7 48.3 420 46.7C443.3 45 466.7 43 490 41.5C513.3 40 536.7 39 560 40C583.3 41 606.7 44 630 43.2C653.3 42.3 676.7 37.7 700 35.7C723.3 33.7 746.7 34.3 770 34.7C793.3 35 816.7 35 840 34.5C863.3 34 886.7 33 910 35.7C933.3 38.3 956.7 44.7 980 47.3C1003.3 50 1026.7 49 1050 47.7C1073.3 46.3 1096.7 44.7 1120 45.7C1143.3 46.7 1166.7 50.3 1190 48.5C1213.3 46.7 1236.7 39.3 1260 37.2C1283.3 35 1306.7 38 1330 40.5C1353.3 43 1376.7 45 1388.3 46L1400 47L1400 0L1388.3 0C1376.7 0 1353.3 0 1330 0C1306.7 0 1283.3 0 1260 0C1236.7 0 1213.3 0 1190 0C1166.7 0 1143.3 0 1120 0C1096.7 0 1073.3 0 1050 0C1026.7 0 1003.3 0 980 0C956.7 0 933.3 0 910 0C886.7 0 863.3 0 840 0C816.7 0 793.3 0 770 0C746.7 0 723.3 0 700 0C676.7 0 653.3 0 630 0C606.7 0 583.3 0 560 0C536.7 0 513.3 0 490 0C466.7 0 443.3 0 420 0C396.7 0 373.3 0 350 0C326.7 0 303.3 0 280 0C256.7 0 233.3 0 210 0C186.7 0 163.3 0 140 0C116.7 0 93.3 0 70 0C46.7 0 23.3 0 11.7 0L0 0Z" fill="#153a83"></path></svg>