<svg id="visual" viewBox="0 0 1400 200" width="1400" height="200" xmlns="http://www.w3.org/2000/svg" xmlns:xlink="http://www.w3.org/1999/xlink" version="1.1"><path d="M0 33L23.3 31.7C46.7 30.3 93.3 27.7 140 28.7C186.7 29.7 233.3 34.3 280 36.3C326.7 38.3 373.3 37.7 420 34C466.7 30.3 513.3 23.7 560 19.7C606.7 15.7 653.3 14.3 700 16C746.7 17.7 793.3 22.3 840 25C886.7 27.7 933.3 28.3 980 27.3C1026.7 26.3 1073.3 23.7 1120 22C1166.7 20.3 1213.3 19.7 1260 17.7C1306.7 15.7 1353.3 12.3 1376.7 10.7L1400 9L1400 0L1376.7 0C1353.3 0 1306.7 0 1260 0C1213.3 0 1166.7 0 1120 0C1073.3 0 1026.7 0 980 0C933.3 0 886.7 0 840 0C793.3 0 746.7 0 700 0C653.3 0 606.7 0 560 0C513.3 0 466.7 0 420 0C373.3 0 326.7 0 280 0C233.3 0 186.7 0 140 0C93.3 0 46.7 0 23.3 0L0 0Z" fill="#33313b"></path><path d="M0 55L23.3 54.7C46.7 54.3 93.3 53.7 140 53.3C186.7 53 233.3 53 280 55.7C326.7 58.3 373.3 63.7 420 59C466.7 54.3 513.3 39.7 560 31.3C606.7 23 653.3 21 700 23.3C746.7 25.7 793.3 32.3 840 36.3C886.7 40.3 933.3 41.7 980 41.7C1026.7 41.7 1073.3 40.3 1120 41C1166.7 41.7 1213.3 44.3 1260 42C1306.7 39.7 1353.3 32.3 1376.7 28.7L1400 25L1400 7L1376.7 8.7C1353.3 10.3 1306.7 13.7 1260 15.7C1213.3 17.7 1166.7 18.3 1120 20C1073.3 21.7 1026.7 24.3 980 25.3C933.3 26.3 886.7 25.7 840 23C793.3 20.3 746.7 15.7 700 14C653.3 12.3 606.7 13.7 560 17.7C513.3 21.7 466.7 28.3 420 32C373.3 35.7 326.7 36.3 280 34.3C233.3 32.3 186.7 27.7 140 26.7C93.3 25.7 46.7 28.3 23.3 29.7L0 31Z" fill="#514f57"></path><path d="M0 87L23.3 92C46.7 97 93.3 107 140 106.3C186.7 105.7 233.3 94.3 280 88.3C326.7 82.3 373.3 81.7 420 86.3C466.7 91 513.3 101 560 93.3C606.7 85.7 653.3 60.3 700 55C746.7 49.7 793.3 64.3 840 68.3C886.7 72.3 933.3 65.7 980 67C1026.7 68.3 1073.3 77.7 1120 84C1166.7 90.3 1213.3 93.7 1260 90.7C1306.7 87.7 1353.3 78.3 1376.7 73.7L1400 69L1400 23L1376.7 26.7C1353.3 30.3 1306.7 37.7 1260 40C1213.3 42.3 1166.7 39.7 1120 39C1073.3 38.3 1026.7 39.7 980 39.7C933.3 39.7 886.7 38.3 840 34.3C793.3 30.3 746.7 23.7 700 21.3C653.3 19 606.7 21 560 29.3C513.3 37.7 466.7 52.3 420 57C373.3 61.7 326.7 56.3 280 53.7C233.3 51 186.7 51 140 51.3C93.3 51.7 46.7 52.3 23.3 52.7L0 53Z" fill="#716e75"></path><path d="M0 111L23.3 113.7C46.7 116.3 93.3 121.7 140 122.3C186.7 123 233.3 119 280 115.7C326.7 112.3 373.3 109.7 420 111.3C466.7 113 513.3 119 560 117C606.7 115 653.3 105 700 101.7C746.7 98.3 793.3 101.7 840 101.7C886.7 101.7 933.3 98.3 980 100C1026.7 101.7 1073.3 108.3 1120 115.3C1166.7 122.3 1213.3 129.7 1260 128.3C1306.7 127 1353.3 117 1376.7 112L1400 107L1400 67L1376.7 71.7C1353.3 76.3 1306.7 85.7 1260 88.7C1213.3 91.7 1166.7 88.3 1120 82C1073.3 75.7 1026.7 66.3 980 65C933.3 63.7 886.7 70.3 840 66.3C793.3 62.3 746.7 47.7 700 53C653.3 58.3 606.7 83.7 560 91.3C513.3 99 466.7 89 420 84.3C373.3 79.7 326.7 80.3 280 86.3C233.3 92.3 186.7 103.7 140 104.3C93.3 105 46.7 95 23.3 90L0 85Z" fill="#929095"></path><path d="M0 169L23.3 169C46.7 169 93.3 169 140 171C186.7 173 233.3 177 280 179.7C326.7 182.3 373.3 183.7 420 180.7C466.7 177.7 513.3 170.3 560 170C606.7 169.7 653.3 176.3 700 177C746.7 177.7 793.3 172.3 840 173C886.7 173.7 933.3 180.3 980 180C1026.7 179.7 1073.3 172.3 1120 173.3C1166.7 174.3 1213.3 183.7 1260 185.3C1306.7 187 1353.3 181 1376.7 178L1400 175L1400 105L1376.7 110C1353.3 115 1306.7 125 1260 126.3C1213.3 127.7 1166.7 120.3 1120 113.3C1073.3 106.3 1026.7 99.7 980 98C933.3 96.3 886.7 99.7 840 99.7C793.3 99.7 746.7 96.3 700 99.7C653.3 103 606.7 113 560 115C513.3 117 466.7 111 420 109.3C373.3 107.7 326.7 110.3 280 113.7C233.3 117 186.7 121 140 120.3C93.3 119.7 46.7 114.3 23.3 111.7L0 109Z" fill="#b4b3b6"></path><path d="M0 201L23.3 201C46.7 201 93.3 201 140 201C186.7 201 233.3 201 280 201C326.7 201 373.3 201 420 201C466.7 201 513.3 201 560 201C606.7 201 653.3 201 700 201C746.7 201 793.3 201 840 201C886.7 201 933.3 201 980 201C1026.7 201 1073.3 201 1120 201C1166.7 201 1213.3 201 1260 201C1306.7 201 1353.3 201 1376.7 201L1400 201L1400 173L1376.7 176C1353.3 179 1306.7 185 1260 183.3C1213.3 181.7 1166.7 172.3 1120 171.3C1073.3 170.3 1026.7 177.7 980 178C933.3 178.3 886.7 171.7 840 171C793.3 170.3 746.7 175.7 700 175C653.3 174.3 606.7 167.7 560 168C513.3 168.3 466.7 175.7 420 178.7C373.3 181.7 326.7 180.3 280 177.7C233.3 175 186.7 171 140 169C93.3 167 46.7 167 23.3 167L0 167Z" fill="#d8d8d8"></path></svg>