<svg id="visual" viewBox="0 0 1400 300" width="1400" height="300" xmlns="http://www.w3.org/2000/svg" xmlns:xlink="http://www.w3.org/1999/xlink" version="1.1"><rect x="0" y="0" width="1400" height="300" fill="#00213b"></rect><path d="M0 125L11.7 123.7C23.3 122.3 46.7 119.7 70 118.5C93.3 117.3 116.7 117.7 140 115C163.3 112.3 186.7 106.7 210 109.7C233.3 112.7 256.7 124.3 280 120.5C303.3 116.7 326.7 97.3 350 99.3C373.3 101.3 396.7 124.7 420 126.3C443.3 128 466.7 108 490 99.5C513.3 91 536.7 94 560 106.2C583.3 118.3 606.7 139.7 630 146.8C653.3 154 676.7 147 700 145.2C723.3 143.3 746.7 146.7 770 148C793.3 149.3 816.7 148.7 840 142.8C863.3 137 886.7 126 910 116C933.3 106 956.7 97 980 99.5C1003.3 102 1026.7 116 1050 119.5C1073.3 123 1096.7 116 1120 112.2C1143.3 108.3 1166.7 107.7 1190 107.3C1213.3 107 1236.7 107 1260 104.8C1283.3 102.7 1306.7 98.3 1330 93.2C1353.3 88 1376.7 82 1388.3 79L1400 76L1400 301L1388.3 301C1376.7 301 1353.3 301 1330 301C1306.7 301 1283.3 301 1260 301C1236.7 301 1213.3 301 1190 301C1166.7 301 1143.3 301 1120 301C1096.7 301 1073.3 301 1050 301C1026.7 301 1003.3 301 980 301C956.7 301 933.3 301 910 301C886.7 301 863.3 301 840 301C816.7 301 793.3 301 770 301C746.7 301 723.3 301 700 301C676.7 301 653.3 301 630 301C606.7 301 583.3 301 560 301C536.7 301 513.3 301 490 301C466.7 301 443.3 301 420 301C396.7 301 373.3 301 350 301C326.7 301 303.3 301 280 301C256.7 301 233.3 301 210 301C186.7 301 163.3 301 140 301C116.7 301 93.3 301 70 301C46.7 301 23.3 301 11.7 301L0 301Z" fill="#032e86"></path><path d="M0 173L11.7 175C23.3 177 46.7 181 70 184C93.3 187 116.7 189 140 181.2C163.3 173.3 186.7 155.7 210 152.5C233.3 149.3 256.7 160.7 280 163.3C303.3 166 326.7 160 350 159.3C373.3 158.7 396.7 163.3 420 158.5C443.3 153.7 466.7 139.3 490 143C513.3 146.7 536.7 168.3 560 177.3C583.3 186.3 606.7 182.7 630 176.5C653.3 170.3 676.7 161.7 700 158C723.3 154.3 746.7 155.7 770 153.7C793.3 151.7 816.7 146.3 840 151.8C863.3 157.3 886.7 173.7 910 180.7C933.3 187.7 956.7 185.3 980 175.2C1003.3 165 1026.7 147 1050 143C1073.3 139 1096.7 149 1120 157C1143.3 165 1166.7 171 1190 171.3C1213.3 171.7 1236.7 166.3 1260 158.3C1283.3 150.3 1306.7 139.7 1330 137.2C1353.3 134.7 1376.7 140.3 1388.3 143.2L1400 146L1400 301L1388.3 301C1376.7 301 1353.3 301 1330 301C1306.7 301 1283.3 301 1260 301C1236.7 301 1213.3 301 1190 301C1166.7 301 1143.3 301 1120 301C1096.7 301 1073.3 301 1050 301C1026.7 301 1003.3 301 980 301C956.7 301 933.3 301 910 301C886.7 301 863.3 301 840 301C816.7 301 793.3 301 770 301C746.7 301 723.3 301 700 301C676.7 301 653.3 301 630 301C606.7 301 583.3 301 560 301C536.7 301 513.3 301 490 301C466.7 301 443.3 301 420 301C396.7 301 373.3 301 350 301C326.7 301 303.3 301 280 301C256.7 301 233.3 301 210 301C186.7 301 163.3 301 140 301C116.7 301 93.3 301 70 301C46.7 301 23.3 301 11.7 301L0 301Z" fill="#005caf"></path><path d="M0 179L11.7 185.8C23.3 192.7 46.7 206.3 70 204.5C93.3 202.7 116.7 185.3 140 176.3C163.3 167.3 186.7 166.7 210 174.8C233.3 183 256.7 200 280 199C303.3 198 326.7 179 350 173.3C373.3 167.7 396.7 175.3 420 175C443.3 174.7 466.7 166.3 490 164.7C513.3 163 536.7 168 560 178.2C583.3 188.3 606.7 203.7 630 201.2C653.3 198.7 676.7 178.3 700 171.8C723.3 165.3 746.7 172.7 770 178.7C793.3 184.7 816.7 189.3 840 193.7C863.3 198 886.7 202 910 195.3C933.3 188.7 956.7 171.3 980 169.2C1003.3 167 1026.7 180 1050 186.3C1073.3 192.7 1096.7 192.3 1120 186.8C1143.3 181.3 1166.7 170.7 1190 168.5C1213.3 166.3 1236.7 172.7 1260 181.2C1283.3 189.7 1306.7 200.3 1330 202.2C1353.3 204 1376.7 197 1388.3 193.5L1400 190L1400 301L1388.3 301C1376.7 301 1353.3 301 1330 301C1306.7 301 1283.3 301 1260 301C1236.7 301 1213.3 301 1190 301C1166.7 301 1143.3 301 1120 301C1096.7 301 1073.3 301 1050 301C1026.7 301 1003.3 301 980 301C956.7 301 933.3 301 910 301C886.7 301 863.3 301 840 301C816.7 301 793.3 301 770 301C746.7 301 723.3 301 700 301C676.7 301 653.3 301 630 301C606.7 301 583.3 301 560 301C536.7 301 513.3 301 490 301C466.7 301 443.3 301 420 301C396.7 301 373.3 301 350 301C326.7 301 303.3 301 280 301C256.7 301 233.3 301 210 301C186.7 301 163.3 301 140 301C116.7 301 93.3 301 70 301C46.7 301 23.3 301 11.7 301L0 301Z" fill="#008ad3"></path><path d="M0 211L11.7 213.2C23.3 215.3 46.7 219.7 70 221.5C93.3 223.3 116.7 222.7 140 225.5C163.3 228.3 186.7 234.7 210 229.8C233.3 225 256.7 209 280 206.2C303.3 203.3 326.7 213.7 350 220.2C373.3 226.7 396.7 229.3 420 230.5C443.3 231.7 466.7 231.3 490 231.2C513.3 231 536.7 231 560 231C583.3 231 606.7 231 630 227.8C653.3 224.7 676.7 218.3 700 216.8C723.3 215.3 746.7 218.7 770 222.3C793.3 226 816.7 230 840 231.2C863.3 232.3 886.7 230.7 910 232C933.3 233.3 956.7 237.7 980 239.8C1003.3 242 1026.7 242 1050 241.8C1073.3 241.7 1096.7 241.3 1120 235C1143.3 228.7 1166.7 216.3 1190 215.3C1213.3 214.3 1236.7 224.7 1260 227.3C1283.3 230 1306.7 225 1330 225.3C1353.3 225.7 1376.7 231.3 1388.3 234.2L1400 237L1400 301L1388.3 301C1376.7 301 1353.3 301 1330 301C1306.7 301 1283.3 301 1260 301C1236.7 301 1213.3 301 1190 301C1166.7 301 1143.3 301 1120 301C1096.7 301 1073.3 301 1050 301C1026.7 301 1003.3 301 980 301C956.7 301 933.3 301 910 301C886.7 301 863.3 301 840 301C816.7 301 793.3 301 770 301C746.7 301 723.3 301 700 301C676.7 301 653.3 301 630 301C606.7 301 583.3 301 560 301C536.7 301 513.3 301 490 301C466.7 301 443.3 301 420 301C396.7 301 373.3 301 350 301C326.7 301 303.3 301 280 301C256.7 301 233.3 301 210 301C186.7 301 163.3 301 140 301C116.7 301 93.3 301 70 301C46.7 301 23.3 301 11.7 301L0 301Z" fill="#00b8ef"></path><path d="M0 274L11.7 271.2C23.3 268.3 46.7 262.7 70 260.5C93.3 258.3 116.7 259.7 140 256.2C163.3 252.7 186.7 244.3 210 244.7C233.3 245 256.7 254 280 253.8C303.3 253.7 326.7 244.3 350 243.7C373.3 243 396.7 251 420 254.5C443.3 258 466.7 257 490 257C513.3 257 536.7 258 560 257.8C583.3 257.7 606.7 256.3 630 257C653.3 257.7 676.7 260.3 700 259.7C723.3 259 746.7 255 770 251.3C793.3 247.7 816.7 244.3 840 242C863.3 239.7 886.7 238.3 910 238C933.3 237.7 956.7 238.3 980 243.8C1003.3 249.3 1026.7 259.7 1050 260.8C1073.3 262 1096.7 254 1120 249.2C1143.3 244.3 1166.7 242.7 1190 242C1213.3 241.3 1236.7 241.7 1260 246.3C1283.3 251 1306.7 260 1330 261.5C1353.3 263 1376.7 257 1388.3 254L1400 251L1400 301L1388.3 301C1376.7 301 1353.3 301 1330 301C1306.7 301 1283.3 301 1260 301C1236.7 301 1213.3 301 1190 301C1166.7 301 1143.3 301 1120 301C1096.7 301 1073.3 301 1050 301C1026.7 301 1003.3 301 980 301C956.7 301 933.3 301 910 301C886.7 301 863.3 301 840 301C816.7 301 793.3 301 770 301C746.7 301 723.3 301 700 301C676.7 301 653.3 301 630 301C606.7 301 583.3 301 560 301C536.7 301 513.3 301 490 301C466.7 301 443.3 301 420 301C396.7 301 373.3 301 350 301C326.7 301 303.3 301 280 301C256.7 301 233.3 301 210 301C186.7 301 163.3 301 140 301C116.7 301 93.3 301 70 301C46.7 301 23.3 301 11.7 301L0 301Z" fill="#29e5ff"></path></svg>